<svg width="30" height="30" viewBox="0 0 30 30" fill="none" xmlns="http://www.w3.org/2000/svg">
<g id="Frame">
<g id="Vector">
<path d="M5 8.25C5 7.55965 5.55965 7 6.25 7H23.75C24.4404 7 25 7.55965 25 8.25C25 8.94035 24.4404 9.5 23.75 9.5H6.25C5.55965 9.5 5 8.94035 5 8.25Z" fill="black"/>
<path d="M5 8.25C5 7.55965 5.55965 7 6.25 7H23.75C24.4404 7 25 7.55965 25 8.25C25 8.94035 24.4404 9.5 23.75 9.5H6.25C5.55965 9.5 5 8.94035 5 8.25Z" fill="url(#paint0_linear_53_284)"/>
</g>
<g id="Vector_2">
<path d="M5 21.25C5 20.5596 5.55965 20 6.25 20H23.75C24.4404 20 25 20.5596 25 21.25C25 21.9404 24.4404 22.5 23.75 22.5H6.25C5.55965 22.5 5 21.9404 5 21.25Z" fill="black"/>
<path d="M5 21.25C5 20.5596 5.55965 20 6.25 20H23.75C24.4404 20 25 20.5596 25 21.25C25 21.9404 24.4404 22.5 23.75 22.5H6.25C5.55965 22.5 5 21.9404 5 21.25Z" fill="url(#paint1_linear_53_284)"/>
</g>
<g id="Vector_3">
<path d="M13.75 13.5C13.0596 13.5 12.5 14.0596 12.5 14.75C12.5 15.4404 13.0596 16 13.75 16H23.75C24.4404 16 25 15.4404 25 14.75C25 14.0596 24.4404 13.5 23.75 13.5H13.75Z" fill="black"/>
<path d="M13.75 13.5C13.0596 13.5 12.5 14.0596 12.5 14.75C12.5 15.4404 13.0596 16 13.75 16H23.75C24.4404 16 25 15.4404 25 14.75C25 14.0596 24.4404 13.5 23.75 13.5H13.75Z" fill="url(#paint2_linear_53_284)"/>
</g>
</g>
<defs>
<linearGradient id="paint0_linear_53_284" x1="5" y1="8.18421" x2="25" y2="8.18421" gradientUnits="userSpaceOnUse">
<stop stop-color="#1A73E8"/>
<stop offset="1" stop-color="#A35AFF"/>
</linearGradient>
<linearGradient id="paint1_linear_53_284" x1="5" y1="21.1842" x2="25" y2="21.1842" gradientUnits="userSpaceOnUse">
<stop stop-color="#1A73E8"/>
<stop offset="1" stop-color="#A35AFF"/>
</linearGradient>
<linearGradient id="paint2_linear_53_284" x1="12.5" y1="14.6842" x2="25" y2="14.6842" gradientUnits="userSpaceOnUse">
<stop stop-color="#1A73E8"/>
<stop offset="1" stop-color="#A35AFF"/>
</linearGradient>
</defs>
</svg>
